<svg width="9" height="14" viewBox="0 0 9 14" fill="none" xmlns="http://www.w3.org/2000/svg">
<path d="M0.677116 6.2645C1.051 5.8701 1.67381 5.85348 2.06821 6.22736L8.38549 12.2161C8.77989 12.59 8.79651 13.2128 8.42263 13.6072C8.04874 14.0016 7.42593 14.0182 7.03154 13.6443L0.714253 7.65559C0.319857 7.28171 0.303231 6.6589 0.677116 6.2645Z" fill="#52087D"/>
<path d="M0.643079 7.57893C0.291741 7.16432 0.343031 6.5434 0.757638 6.19206L7.31407 0.636142C7.72868 0.284805 8.3496 0.336094 8.70094 0.750701C9.05228 1.16531 9.00099 1.78623 8.58638 2.13757L2.02995 7.69349C1.61534 8.04483 0.994417 7.99354 0.643079 7.57893Z" fill="#52087D"/>
</svg>
