<svg width="108" height="84" viewBox="0 0 108 84" fill="none" xmlns="http://www.w3.org/2000/svg">
    <rect x="2" y="2" width="104" height="71" rx="3" stroke="#52087D" stroke-width="4" />
    <circle cx="17.5" cy="18.5" r="7.5" fill="#52087D" />
    <path
        d="M28.0958 40.2214C29.2955 38.6139 31.7045 38.6139 32.9042 40.2214L49.8715 62.9556C51.3482 64.9342 49.9362 67.75 47.4673 67.75H13.5327C11.0638 67.75 9.65182 64.9342 11.1285 62.9557L28.0958 40.2214Z"
        fill="#52087D" />
    <path
        d="M62.5882 23.2604C63.7874 21.6392 66.2126 21.6392 67.4118 23.2604L96.9681 63.2159C98.4329 65.196 97.0193 68 94.5563 68H35.4437C32.9807 68 31.5671 65.196 33.0319 63.2159L62.5882 23.2604Z"
        fill="#52087D" />
    <path d="M16.3111 56H91.6409L101 68H7L16.3111 56Z" fill="#52087D" />
</svg>