<svg width="29" height="29" viewBox="0 0 29 29" fill="none" xmlns="http://www.w3.org/2000/svg">
<rect x="16.7979" y="14.6978" width="9.4456" height="3.95685" rx="1.97843" transform="rotate(45 16.7979 14.6978)" fill="#FBFEFB"/>
<path d="M5.25 12C5.25 15.7227 8.27728 18.75 12 18.75C15.7227 18.75 18.75 15.7227 18.75 12C18.75 8.27728 15.7227 5.25 12 5.25C8.27728 5.25 5.25 8.27728 5.25 12ZM7.02988 12C7.02988 9.26007 9.26007 7.02988 12 7.02988C14.7398 7.02988 16.9701 9.26008 16.9701 12C16.9701 14.7398 14.7398 16.9701 12 16.9701C9.26008 16.9701 7.02988 14.7398 7.02988 12Z" fill="#FBFEFB" stroke="#FBFEFB" stroke-width="1.5" stroke-linecap="round"/>
</svg>
