<svg width="12" height="19" viewBox="0 0 12 19" fill="none" xmlns="http://www.w3.org/2000/svg">
<path d="M11.2131 10.4091C10.7146 10.935 9.8842 10.9571 9.35834 10.4586L0.935301 2.47363C0.40944 1.97512 0.38727 1.1447 0.885783 0.618842C1.3843 0.0929813 2.21471 0.0708112 2.74057 0.569324L11.1636 8.55432C11.6895 9.05283 11.7116 9.88325 11.2131 10.4091Z" fill="white"/>
<path d="M11.2585 8.65654C11.727 9.20935 11.6586 10.0372 11.1058 10.5057L2.36385 17.9136C1.81104 18.382 0.983144 18.3136 0.514694 17.7608C0.0462432 17.208 0.114629 16.3801 0.667439 15.9117L9.40936 8.50379C9.96217 8.03534 10.7901 8.10373 11.2585 8.65654Z" fill="white"/>
</svg>
