<svg width="9" height="14" viewBox="0 0 9 14" fill="none" xmlns="http://www.w3.org/2000/svg">
<path d="M8.65997 8.05695C8.28608 8.45135 7.66327 8.46798 7.26888 8.09409L0.951593 2.10535C0.557198 1.73146 0.540571 1.10865 0.914456 0.714253C1.28834 0.319858 1.91115 0.303231 2.30555 0.677115L8.62283 6.66586C9.01723 7.03975 9.03385 7.66256 8.65997 8.05695Z" fill="#52087D"/>
<path d="M8.69401 6.74253C9.04534 7.15713 8.99405 7.77805 8.57945 8.12939L2.02301 13.6853C1.6084 14.0366 0.98748 13.9854 0.636142 13.5708C0.284804 13.1561 0.336094 12.5352 0.750701 12.1839L7.30714 6.62797C7.72175 6.27663 8.34267 6.32792 8.69401 6.74253Z" fill="#52087D"/>
</svg>
