<svg width="76" height="76" viewBox="0 0 76 76" fill="none" xmlns="http://www.w3.org/2000/svg">
    <g id='icon' fill='none'>
        <path
            d="M38.9134 6.96144L45.9666 22.7848C46.6933 24.415 48.2338 25.5342 50.0087 25.7215L67.2372 27.5399C68.0979 27.6307 68.4446 28.6978 67.8017 29.2772L54.9323 40.875C53.6065 42.0698 53.0181 43.8807 53.3884 45.6267L56.9829 62.5739C57.1625 63.4205 56.2548 64.08 55.5051 63.6476L40.4981 54.992C38.9521 54.1003 37.0479 54.1003 35.5019 54.992L20.4949 63.6476C19.7452 64.08 18.8375 63.4205 19.0171 62.5739L22.6116 45.6267C22.9819 43.8807 22.3935 42.0698 21.0677 40.875L8.19833 29.2772C7.55542 28.6978 7.90214 27.6307 8.76283 27.5399L25.9913 25.7215C27.7662 25.5342 29.3067 24.415 30.0334 22.7848L37.0866 6.96145C37.439 6.17096 38.561 6.17096 38.9134 6.96144Z"
            stroke="currentColor" stroke-width="4" />
        <path
            d="M35.5017 54.9921L20.4948 63.6477C19.7451 64.0801 18.8373 63.4206 19.0169 62.5739L22.6114 45.6267C22.9817 43.8808 22.3933 42.0699 21.0675 40.875L8.19816 29.2773C7.55525 28.6979 7.90197 27.6308 8.76265 27.54L25.9912 25.7216C27.7661 25.5343 29.3065 24.415 30.0332 22.7849L36 9.39889V54.7406C35.8305 54.8146 35.6641 54.8984 35.5017 54.9921Z"
            fill="currentColor" stroke="currentColor" stroke-width="4" />
    </g>
</svg>