<svg width="12" height="19" viewBox="0 0 12 19" fill="none" xmlns="http://www.w3.org/2000/svg">
<path d="M0.90282 8.01917C1.40133 7.49331 2.23175 7.47114 2.75761 7.96965L11.1807 15.9546C11.7065 16.4532 11.7287 17.2836 11.2302 17.8094C10.7317 18.3353 9.90124 18.3575 9.37538 17.859L0.952338 9.87396C0.426477 9.37545 0.404307 8.54503 0.90282 8.01917Z" fill="white"/>
<path d="M0.857438 9.77174C0.388988 9.21893 0.457374 8.39104 1.01018 7.92259L9.7521 0.514693C10.3049 0.0462427 11.1328 0.11463 11.6013 0.66744C12.0697 1.22025 12.0013 2.04814 11.4485 2.51659L2.70659 9.92449C2.15378 10.3929 1.32589 10.3245 0.857438 9.77174Z" fill="white"/>
</svg>
